<?xml version="1.0" encoding="UTF-8" standalone="no"?>
<!-- Created with Inkscape (http://www.inkscape.org/) -->

<svg
   xmlns:dc="http://purl.org/dc/elements/1.1/"
   xmlns:cc="http://creativecommons.org/ns#"
   xmlns:rdf="http://www.w3.org/1999/02/22-rdf-syntax-ns#"
   xmlns:svg="http://www.w3.org/2000/svg"
   xmlns="http://www.w3.org/2000/svg"
   xmlns:sodipodi="http://sodipodi.sourceforge.net/DTD/sodipodi-0.dtd"
   xmlns:inkscape="http://www.inkscape.org/namespaces/inkscape"
   width="210mm"
   height="297mm"
   viewBox="0 0 744.09448819 1052.3622047"
   id="svg2"
   version="1.1"
   inkscape:version="0.91 r13725"
   sodipodi:docname="elderberry.svg">
  <defs
     id="defs4" />
  <sodipodi:namedview
     id="base"
     pagecolor="#ffffff"
     bordercolor="#666666"
     borderopacity="1.0"
     inkscape:pageopacity="0.0"
     inkscape:pageshadow="2"
     inkscape:zoom="1.4"
     inkscape:cx="328.61327"
     inkscape:cy="617.5522"
     inkscape:document-units="px"
     inkscape:current-layer="layer1"
     showgrid="false"
     inkscape:window-width="1920"
     inkscape:window-height="1048"
     inkscape:window-x="1920"
     inkscape:window-y="0"
     inkscape:window-maximized="1" />
  <metadata
     id="metadata7">
    <rdf:RDF>
      <cc:Work
         rdf:about="">
        <dc:format>image/svg+xml</dc:format>
        <dc:type
           rdf:resource="http://purl.org/dc/dcmitype/StillImage" />
        <dc:title></dc:title>
      </cc:Work>
    </rdf:RDF>
  </metadata>
  <g
     inkscape:groupmode="layer"
     id="layer2"
     inkscape:label="picture"
     style="display:none" />
  <g
     inkscape:label="Layer 1"
     inkscape:groupmode="layer"
     id="layer1">
    <g
       transform="translate(192.01513,241.29942)"
       id="g4922"
       inkscape:export-xdpi="90"
       inkscape:export-ydpi="90">
      <path
         style="fill:none;fill-rule:evenodd;stroke:#000000;stroke-width:1px;stroke-linecap:butt;stroke-linejoin:miter;stroke-opacity:1"
         d="m 122.24558,105.18662 c -6.56386,1.84223 -6.35146,10.41655 -3.31082,15.28069 -0.49766,6.21437 4.46431,11.63933 10.65664,11.14827 1.91675,2.09078 2.60409,11.58562 1.64869,14.62461 -1.34802,0.68553 -0.2194,2.82296 -0.59013,4.02448"
         id="path4779"
         inkscape:connector-curvature="0" />
      <path
         style="fill:none;fill-rule:evenodd;stroke:#000000;stroke-width:1px;stroke-linecap:butt;stroke-linejoin:miter;stroke-opacity:1"
         d="m 130.64996,150.01 c 3.26887,6.12273 11.25728,2.12832 15.2807,7.38567 5.21395,0.10199 11.02735,6.81883 14.51323,-1.52464 8.96047,-3.57594 1.37926,8.62442 6.95673,11.68511 5.64062,5.91572 12.4975,-5.69403 15.8384,1.62859 4.88369,6.91131 10.47244,-0.82073 15.41005,5.0197 3.67797,-3.94984 16.75841,-6.45356 10.24048,1.72293 1.01555,4.495 5.72366,13.55773 12.18832,10.74644 7.24434,-1.40872 16.31757,0.30064 20.51238,-7.20801 5.9346,-3.78797 4.9794,-10.62558 2.39155,-16.21252 3.02426,-5.90449 7.77596,-13.64402 15.2807,-13.49795"
         id="path4781"
         inkscape:connector-curvature="0" />
      <path
         style="fill:none;fill-rule:evenodd;stroke:#000000;stroke-width:1px;stroke-linecap:butt;stroke-linejoin:miter;stroke-opacity:1"
         d="m 260.28121,149.50064 c 8.06201,-0.71119 6.44102,-11.16518 9.02541,-16.74167 4.5369,-6.61468 -1.19597,-11.5748 -4.32963,-16.98196 -1.48849,-6.557 -7.50331,-8.88124 -10.55338,-14.41057 -4.45741,-1.55873 -15.30537,-5.658805 -11.65698,-10.299522 -3.36967,-8.066373 -4.71173,-19.740095 -15.08424,-22.553975 -6.81502,-0.937179 -11.44545,-5.227898 -16.74327,-8.617112 -6.37732,-0.842057 -11.41503,-9.278221 -17.56146,-5.556724 -7.82672,2.26 -14.46404,7.452168 -18.66835,14.428514 -8.82766,3.073379 -13.39688,-4.421092 -21.60899,5.797433 -8.54908,3.040129 -16.52621,7.447461 -19.39422,15.850222 -8.97865,-0.268738 -13.56963,6.872397 -11.20584,14.007304"
         id="path4783"
         inkscape:connector-curvature="0" />
      <path
         style="fill:none;fill-rule:evenodd;stroke:#000000;stroke-width:1px;stroke-linecap:butt;stroke-linejoin:miter;stroke-opacity:1"
         d="m 183.87773,170.89362 c -14.22574,2.64155 -29.15524,2.85338 -42.02192,10.18713 -15.96617,5.92458 -31.88135,11.99347 -47.879521,17.82748 l -0.254678,0.76403"
         id="path4785"
         inkscape:connector-curvature="0" />
      <path
         style="fill:none;fill-rule:evenodd;stroke:#000000;stroke-width:1px;stroke-linecap:butt;stroke-linejoin:miter;stroke-opacity:1"
         d="m 92.702898,194.32402 c 22.993282,-6.9778 44.726412,-17.57875 68.073542,-23.35585 2.87538,-0.8454 6.19374,-0.58407 8.58462,-2.62134"
         id="path4787"
         inkscape:connector-curvature="0" />
      <path
         style="fill:none;fill-rule:evenodd;stroke:#000000;stroke-width:1px;stroke-linecap:butt;stroke-linejoin:miter;stroke-opacity:1"
         d="m 144.65727,180.82607 c 6.83063,10.50863 15.96659,21.15236 14.5946,34.53516 0.2539,14.84426 1.93154,30.09915 -0.80898,44.69403 -4.55713,15.03867 -9.51725,29.92864 -15.75548,44.32487 -2.73025,9.17197 -0.66599,19.1119 1.4605,28.2342 -4.76387,-2.58328 -5.17484,-11.35367 -8.64919,-16.16758 -5.46529,-11.46519 -13.9765,-21.82892 -14.64849,-34.96823 -4.18106,-18.71087 -4.64048,-38.27619 -0.76139,-57.07856 1.22796,-10.39159 4.45217,-20.86008 9.42025,-29.92796 4.49023,-4.93806 8.33249,-10.52201 13.62011,-14.66464"
         id="path4789"
         inkscape:connector-curvature="0" />
      <path
         style="fill:none;fill-rule:evenodd;stroke:#000000;stroke-width:1px;stroke-linecap:butt;stroke-linejoin:miter;stroke-opacity:1"
         d="m 143.38388,180.82607 c -7.03128,5.97698 -3.05296,15.67024 -4.07486,23.67567 -0.37043,35.29968 -2.00274,70.70701 -0.76403,105.95558"
         id="path4791"
         inkscape:connector-curvature="0" />
      <path
         style="fill:none;fill-rule:evenodd;stroke:#000000;stroke-width:1px;stroke-linecap:butt;stroke-linejoin:miter;stroke-opacity:1"
         d="m 94.485646,199.41758 c -1.597937,20.88544 -8.993537,40.8166 -17.300301,59.83941 -10.710287,19.20209 -19.427758,39.60885 -32.616644,57.31261 -2.818963,7.62626 -3.78092,16.11598 -8.91374,22.66637 -0.14311,-8.79421 1.71107,-18.11276 0.330286,-26.58205 -9.561336,-14.40631 -5.673261,-32.52703 -2.149891,-48.24368 7.415256,-13.80643 12.003183,-29.48301 23.743029,-40.42891 8.697912,-12.26434 23.289958,-17.67985 35.371408,-25.93872 l 0.262461,-0.1531"
         id="path4793"
         inkscape:connector-curvature="0" />
      <path
         style="fill:none;fill-rule:evenodd;stroke:#000000;stroke-width:1px;stroke-linecap:butt;stroke-linejoin:miter;stroke-opacity:1"
         d="m 91.938863,199.41758 c -10.663679,14.86136 -19.214684,30.92632 -26.824786,47.52732 -8.634651,16.51773 -14.443612,34.40487 -19.726885,52.20912 -1.147954,4.97118 -2.270461,9.94721 -3.619952,14.86879"
         id="path4795"
         inkscape:connector-curvature="0" />
      <path
         style="fill:none;fill-rule:evenodd;stroke:#000000;stroke-width:1px;stroke-linecap:butt;stroke-linejoin:miter;stroke-opacity:1"
         d="m 38.7111,254.93745 c -6.195642,3.38636 -11.825649,7.47237 -16.29941,12.98859 -6.576817,-0.50581 -12.098418,-0.486 -15.5353762,6.11228 -0.6343026,11.77416 -4.3759126,4.73233 -1.5482147,-2.2639 6.8025559,-7.57089 8.7473839,-17.34796 9.2396099,-27.17779 1.611833,-8.63699 7.720511,-16.00994 12.007899,-23.62217 3.643048,-8.25262 13.972225,-6.98322 21.10066,-10.57247 11.926078,-3.49741 24.01424,-6.25315 35.272183,-11.75284 9.26362,-2.89587 10.363532,-1.75979 -0.18529,-1.44724 -24.720302,1.81874 -49.602465,1.98593 -74.1040991,6.03585 5.5570731,4.43811 10.8871411,12.14577 18.9234231,9.37209 7.58133,-0.7954 15.289047,-0.84679 22.589138,-3.25981"
         id="path4797"
         inkscape:connector-curvature="0" />
      <path
         style="fill:none;fill-rule:evenodd;stroke:#000000;stroke-width:1px;stroke-linecap:butt;stroke-linejoin:miter;stroke-opacity:1"
         d="m 64.688286,215.20764 c -12.184335,9.86305 -24.818195,19.2247 -34.595655,31.60987 -1.966064,2.0275 -3.932129,4.05501 -5.898193,6.08251"
         id="path4799"
         inkscape:connector-curvature="0" />
      <path
         style="fill:none;fill-rule:evenodd;stroke:#000000;stroke-width:1px;stroke-linecap:butt;stroke-linejoin:miter;stroke-opacity:1"
         d="m 94.485646,193.55998 c -4.665537,-5.76914 -8.830109,-12.21472 -16.614814,-13.77213 -8.775375,-5.01729 -19.240475,-3.67219 -28.795507,-2.23653 -11.614988,1.5054 -19.760931,10.73044 -29.351131,16.61 -3.179021,2.60101 -6.358041,5.20203 -9.537062,7.80305"
         id="path4801"
         inkscape:connector-curvature="0" />
      <path
         style="fill:none;fill-rule:evenodd;stroke:#000000;stroke-width:1px;stroke-linecap:butt;stroke-linejoin:miter;stroke-opacity:1"
         d="m 49.15291,151.53807 c 9.072378,-4.75166 5.801855,4.50273 13.44777,7.09514 13.791559,7.38071 28.748868,12.39893 44.41243,13.43375 8.3997,1.02915 16.82312,3.60092 25.16492,0.86408 10.40878,5.27614 6.75096,3.29359 -1.36704,-0.99052 -11.7983,-6.27148 -23.22068,-13.4934 -36.632948,-15.68435 -12.421347,-3.75875 -25.133227,-6.25504 -37.89414,-8.53828 -2.376997,1.27339 -4.753995,2.54679 -7.130992,3.82018 z"
         id="path4812"
         inkscape:connector-curvature="0" />
      <path
         style="fill:none;fill-rule:evenodd;stroke:#000000;stroke-width:1px;stroke-linecap:butt;stroke-linejoin:miter;stroke-opacity:1"
         d="m 59.085363,147.71789 c 7.825517,-5.20102 15.747105,-10.15526 25.389185,-10.69013 8.0905,-0.43981 16.950512,-0.66445 24.699052,1.77703 8.8724,3.211 17.42159,8.08323 23.97188,14.72791 3.76508,6.8674 6.62407,13.97192 6.16354,21.94512 l 0.34092,1.02276 0.16844,0.50531"
         id="path4814"
         inkscape:connector-curvature="0" />
      <path
         style="fill:none;fill-rule:evenodd;stroke:#000000;stroke-width:1px;stroke-linecap:butt;stroke-linejoin:miter;stroke-opacity:1"
         d="m 182.09498,171.78499 c -2.65894,10.87808 4.92788,20.93707 10.49247,29.61206 6.48411,7.02504 16.10964,10.06889 25.20585,11.73725 7.86652,0.77827 15.9396,-0.10703 23.51438,2.58269 -4.5393,-4.76778 -11.33915,-5.98542 -16.13374,-9.69357 -10.20717,-10.22155 -14.33632,-25.99515 -28.51455,-31.94633 l 0.20693,-0.38201"
         id="path4816"
         inkscape:connector-curvature="0" />
      <path
         style="fill:none;fill-rule:evenodd;stroke:#000000;stroke-width:1px;stroke-linecap:butt;stroke-linejoin:miter;stroke-opacity:1"
         d="m 183.87773,172.03967 c 10.36822,14.42981 23.68922,26.42625 39.3322,34.87846 2.3822,1.40489 4.76439,2.80977 7.14658,4.21466"
         id="path4818"
         inkscape:connector-curvature="0" />
      <path
         style="fill:none;fill-rule:evenodd;stroke:#000000;stroke-width:1px;stroke-linecap:butt;stroke-linejoin:miter;stroke-opacity:1"
         d="m 241.6897,180.31671 c -3.84674,10.815 1.15407,22.24731 -1.27339,33.36286 1.44606,10.75116 -0.65923,21.12242 -2.84617,31.59364 -0.53074,11.53317 3.02648,-3.35625 5.29308,-7.2868 2.1115,-7.35936 6.57742,-13.02085 12.05022,-18.1601 10.50921,-10.00823 13.46692,-24.5208 16.33134,-38.11773 0.97336,-11.13475 -0.91829,-23.08315 -8.84021,-31.4553 l -0.56135,-0.78294"
         id="path4820"
         inkscape:connector-curvature="0" />
      <path
         style="fill:none;fill-rule:evenodd;stroke:#000000;stroke-width:1px;stroke-linecap:butt;stroke-linejoin:miter;stroke-opacity:1"
         d="m 251.87683,99.329016 c 0.27941,-7.819804 -1.25504,-16.348326 0.44693,-23.739588 4.46355,-3.964486 8.99792,-9.689197 4.5688,-15.551002 -0.34281,-4.652784 5.88411,8.928522 9.76374,9.186168 6.24258,3.524962 12.65912,8.535753 13.20953,16.23961 2.86523,9.567324 1.58772,19.894366 -2.88256,28.782226 -1.33038,3.71418 -2.48172,7.35029 -5.24153,10.29574"
         id="path4822"
         inkscape:connector-curvature="0" />
      <path
         style="fill:none;fill-rule:evenodd;stroke:#000000;stroke-width:1px;stroke-linecap:butt;stroke-linejoin:miter;stroke-opacity:1"
         d="m 263.59203,112.57229 c 1.78805,-11.92998 1.99724,-23.837248 -0.35677,-35.707663 -0.13408,-2.119931 -0.52579,-4.125134 -1.42598,-6.05958"
         id="path4824"
         inkscape:connector-curvature="0" />
      <path
         style="fill:none;fill-rule:evenodd;stroke:#000000;stroke-width:1px;stroke-linecap:butt;stroke-linejoin:miter;stroke-opacity:1"
         d="m 269.19495,141.60561 c 14.39055,-3.93227 28.89096,-8.99397 44.03486,-6.62553 14.49442,1.1674 29.31249,0.15505 43.06091,5.67838 1.10501,0.31572 2.21002,0.63143 3.31503,0.94715"
         id="path4826"
         inkscape:connector-curvature="0" />
      <path
         style="fill:none;fill-rule:evenodd;stroke:#000000;stroke-width:1px;stroke-linecap:butt;stroke-linejoin:miter;stroke-opacity:1"
         d="m 268.94027,138.04012 c 13.35103,-4.30724 29.35245,-4.04587 39.37607,-15.09958 12.46331,-9.33782 24.09265,-19.65229 34.88082,-30.811957 3.4321,-2.184065 6.86421,-4.36813 10.29631,-6.552195"
         id="path4828"
         inkscape:connector-curvature="0" />
      <path
         style="fill:none;fill-rule:evenodd;stroke:#000000;stroke-width:1px;stroke-linecap:butt;stroke-linejoin:miter;stroke-opacity:1"
         d="m 298.22828,130.39977 c 1.96727,-9.68716 2.49748,-19.92861 9.17096,-27.8005 7.02257,-10.6757 14.38587,-22.18158 27.02435,-26.661412 7.29129,-4.556874 17.11063,-5.709344 24.92748,-1.821993 6.06032,-1.865661 7.0091,-9.109241 5.92516,1.563161 3.14876,6.287635 2.6598,13.994804 0.5006,20.39056 -7.2938,10.905684 -20.00287,15.521864 -31.34082,21.090334 -9.17434,4.9892 -19.4136,6.73165 -29.33142,9.67435"
         id="path4830"
         inkscape:connector-curvature="0" />
      <path
         style="fill:none;fill-rule:evenodd;stroke:#000000;stroke-width:1px;stroke-linecap:butt;stroke-linejoin:miter;stroke-opacity:1"
         d="m 300.52038,130.90912 c 14.34688,0.67914 28.69375,1.35829 43.04063,2.03743 1.11839,-7.17092 5.40955,-12.1825 11.31988,-16.09209 10.40671,-6.13024 22.69215,-8.59868 34.52222,-10.64913 6.54225,3.64192 14.51302,4.84162 19.26983,10.98197 5.39124,4.30128 12.88379,5.39669 17.65852,10.15633 -3.25736,6.07251 -5.11616,12.00767 -13.45518,9.80322 -13.25208,0.44234 -26.58641,2.33008 -39.57257,-1.24479 -7.5205,-0.48497 -15.21691,-1.47385 -22.37933,-2.92992 -11.9356,2.96523 3.91641,-0.3113 8.21075,-0.9917 17.06437,-3.399 34.57587,-3.73196 51.91563,-4.38213"
         id="path4832"
         inkscape:connector-curvature="0" />
      <path
         style="fill:none;fill-rule:evenodd;stroke:#000000;stroke-width:1px;stroke-linecap:butt;stroke-linejoin:miter;stroke-opacity:1"
         d="m 337.44873,137.78544 c 9.92144,20.67463 21.90458,40.33943 33.09008,60.32908 9.44513,14.76499 21.24105,27.59323 33.50248,40.03796 6.39227,7.28347 8.50092,18.1606 15.92321,24.42532 -2.80123,-10.87836 -7.50105,-21.54716 -5.25943,-32.98213 0.94221,-8.12875 0.99685,-16.11958 -3.11019,-23.46374 -5.11884,-15.26207 -14.49991,-28.90421 -24.57695,-41.24413 -8.98276,-8.6111 -18.67721,-16.21715 -29.9764,-21.557 -4.28118,-3.04952 -14.41152,-6.26734 -16.67448,-5.43183 18.46305,26.0032 37.76001,51.4554 53.51198,79.24997 4.10153,6.28377 7.64785,12.77984 10.55009,19.70635"
         id="path4834"
         inkscape:connector-curvature="0" />
      <path
         style="fill:none;fill-rule:evenodd;stroke:#000000;stroke-width:1px;stroke-linecap:butt;stroke-linejoin:miter;stroke-opacity:1"
         d="m 291.60664,136.00269 c -2.53179,6.53734 -2.41811,12.88375 1.22463,18.97547 3.50133,9.6935 10.01819,18.41431 9.14604,29.20136 1.12728,13.50103 8.1583,25.73257 11.91546,38.65721 4.14804,12.33222 9.79808,24.11826 14.8512,35.9892 3.25652,10.7524 2.80537,23.00374 9.72348,32.27584 -0.28138,-13.21795 -5.46999,-26.95698 0.98283,-39.55939 6.49638,-17.39472 3.05473,-36.25214 1.4502,-54.15669 -5.44608,-13.90182 -9.24501,-28.82328 -17.20039,-41.47034 -5.50615,-5.85175 -30.63894,-20.9376 -29.08611,-17.93792 9.31574,23.55769 20.48456,46.47903 26.09572,71.30886 5.20985,16.31255 7.71994,33.24165 11.13611,49.98069"
         id="path4836"
         inkscape:connector-curvature="0" />
      <path
         style="fill:none;fill-rule:evenodd;stroke:#000000;stroke-width:1px;stroke-linecap:butt;stroke-linejoin:miter;stroke-opacity:1"
         d="m 359.09639,141.35093 c 3.39571,2.88636 6.79142,5.77271 10.18713,8.65907"
         id="path4838"
         inkscape:connector-curvature="0" />
      <path
         style="fill:none;fill-rule:evenodd;stroke:#000000;stroke-width:1px;stroke-linecap:butt;stroke-linejoin:miter;stroke-opacity:1"
         d="m 346.61715,134.21994 c 29.30911,10.3263 54.68419,28.85324 80.97137,44.9807 4.84433,3.34327 9.68866,6.68654 14.53299,10.02981"
         id="path4840"
         inkscape:connector-curvature="0" />
      <path
         style="fill:none;fill-rule:evenodd;stroke:#000000;stroke-width:1px;stroke-linecap:butt;stroke-linejoin:miter;stroke-opacity:1"
         d="m 379.98001,157.90502 c 11.50506,9.8868 24.01899,18.26555 37.55016,25.12373 9.77935,7.58252 23.3437,5.77559 32.92322,13.72074 7.40013,7.55487 10.13597,0.72562 1.89926,-3.29378 -7.8131,-6.62541 -10.60239,-16.83643 -12.57895,-26.71256 -3.89784,-7.53014 -7.76817,-16.54877 -16.75306,-19.02526 -16.03808,-6.92108 -33.88071,-7.21176 -50.98355,-6.01445 -2.53082,-0.37218 -5.06164,-0.74436 -7.59246,-1.11654"
         id="path4842"
         inkscape:connector-curvature="0" />
      <path
         style="fill:none;fill-rule:evenodd;stroke:#000000;stroke-width:1px;stroke-linecap:butt;stroke-linejoin:miter;stroke-opacity:1"
         d="m 260.04237,149.83051 c -5.2301,22.63278 -10.5527,45.40331 -13.51359,68.41844 -0.0576,1.32521 -0.11523,2.65042 -0.17285,3.97563"
         id="path4853"
         inkscape:connector-curvature="0" />
      <path
         style="fill:none;fill-rule:evenodd;stroke:#000000;stroke-width:1px;stroke-linecap:butt;stroke-linejoin:miter;stroke-opacity:1"
         d="m 140.58242,108.75211 c -4.83605,5.87765 -1.85283,10.30757 4.32953,13.24327 -3.9125,7.93969 4.79967,9.97507 10.65957,6.20078 4.56204,1.72969 5.55479,12.76908 13.63641,9.3346 l 0.40781,0 0,0.25468"
         id="path4864"
         inkscape:connector-curvature="0" />
      <path
         style="fill:none;fill-rule:evenodd;stroke:#000000;stroke-width:1px;stroke-linecap:butt;stroke-linejoin:miter;stroke-opacity:1"
         d="m 177.25609,80.992179 c 7.04948,-4.108464 10.21072,2.754917 11.46052,8.659062 4.59686,0.156888 12.40889,-5.835347 11.7152,4.584209"
         id="path4866"
         inkscape:connector-curvature="0" />
      <path
         style="fill:none;fill-rule:evenodd;stroke:#000000;stroke-width:1px;stroke-linecap:butt;stroke-linejoin:miter;stroke-opacity:1"
         d="m 159.68329,87.104458 c -10.50833,1.548388 2.14862,12.697747 -8.40439,7.895027 -1.52807,0.509357 -3.05613,1.018713 -4.5842,1.52807"
         id="path4868"
         inkscape:connector-curvature="0" />
      <path
         style="fill:none;fill-rule:evenodd;stroke:#000000;stroke-width:1px;stroke-linecap:butt;stroke-linejoin:miter;stroke-opacity:1"
         d="m 190.49936,142.879 c 4.09921,5.16275 11.76348,7.2314 16.62765,2.39117 7.20137,-4.13168 -2.28997,-12.9223 7.27663,-14.90715 2.36626,-1.78633 4.05317,-4.66088 6.14776,-6.83957"
         id="path4870"
         inkscape:connector-curvature="0" />
      <path
         style="fill:none;fill-rule:evenodd;stroke:#000000;stroke-width:1px;stroke-linecap:butt;stroke-linejoin:miter;stroke-opacity:1"
         d="m 221.31543,95.254163 c 5.04535,1.866613 8.54767,2.109712 12.9886,-1.273391"
         id="path4872"
         inkscape:connector-curvature="0" />
      <path
         style="fill:none;fill-rule:evenodd;stroke:#000000;stroke-width:1px;stroke-linecap:butt;stroke-linejoin:miter;stroke-opacity:1"
         d="m 183.11369,111.55357 c 6.34693,-1.13018 8.53859,4.96514 13.64506,7.6969 0.88625,0.6433 0.0763,1.88163 0.36225,2.74491"
         id="path4874"
         inkscape:connector-curvature="0" />
      <path
         style="fill:none;fill-rule:evenodd;stroke:#000000;stroke-width:1px;stroke-linecap:butt;stroke-linejoin:miter;stroke-opacity:1"
         d="m 240.16163,124.28749 c 8.61713,5.81152 5.36578,14.11297 5.8576,22.15701 -5.25194,-1.50156 -12.19005,-0.0176 -14.51666,5.34824"
         id="path4876"
         inkscape:connector-curvature="0" />
      <path
         style="fill:none;fill-rule:evenodd;stroke:#000000;stroke-width:1px;stroke-linecap:butt;stroke-linejoin:miter;stroke-opacity:1"
         d="m 180.44492,153.07203 c -1.13133,8.32658 6.82842,7.06109 11.92757,8.68605 4.53346,0.72072 8.57206,1.61234 6.80124,-4.72418"
         id="path4889"
         inkscape:connector-curvature="0" />
      <path
         style="fill:none;fill-rule:evenodd;stroke:#000000;stroke-width:1px;stroke-linecap:butt;stroke-linejoin:miter;stroke-opacity:1"
         d="m 221.86441,167.47881 c 6.28229,5.42775 9.44429,4.42111 14.05487,-1.73352 1.59198,-2.43648 0.66521,-4.46793 -0.36843,-6.91054"
         id="path4900"
         inkscape:connector-curvature="0" />
      <path
         style="fill:none;fill-rule:evenodd;stroke:#000000;stroke-width:1px;stroke-linecap:butt;stroke-linejoin:miter;stroke-opacity:1"
         d="m 242.39407,107.69068 c -4.09393,8.73154 6.41065,9.43137 7.92943,13.29208 -0.12196,0.73174 -0.24391,1.46347 -0.36587,2.19521"
         id="path4911"
         inkscape:connector-curvature="0" />
    </g>
  </g>
</svg>
